<svg width="312" height="329" viewBox="0 0 312 329" fill="none" xmlns="http://www.w3.org/2000/svg">
<path d="M2.05551 123.869C-11.9812 57.2967 50.3732 59.1648 53.0678 59.6344C54.6925 59.9175 85.5394 69.6089 96.9522 63.3244C103.654 59.6344 108.471 50.9518 125.125 49.6673C145.941 48.0617 167.975 59.6937 171.214 70.1677C173.539 77.6846 200.361 51.4342 221.285 59.6344C242.21 67.8345 241.389 59.6344 262.314 63.3244C283.239 67.0145 272.434 97.9018 269.152 107.059C265.87 116.216 275.021 97.9492 289 115C302.17 131.065 278.849 152.586 283.786 164.46C289 177 292.949 172.496 292.949 182.5C292.949 192.53 281.478 188.086 296.575 214.5C306.245 231.419 287.478 236.257 292.949 243.5C298.419 250.743 301.635 266.123 296.575 272C291.515 277.877 291.034 291.973 292.949 297.029C294.864 302.086 285.153 307.963 279.683 307.963C274.212 307.963 254.655 304.273 241.389 315.616C228.123 326.96 164.392 314.796 147.434 312.063C130.475 309.33 128.287 310.696 94.0965 322.997C59.9059 335.297 25.3051 327.917 15.7317 307.963C8.07304 292 18.9228 272.156 25.3051 264.229C23.4816 264.365 19.014 261.277 15.7317 247.828C11.6289 231.018 28.4506 228.841 25.3051 211.074C23.2484 199.457 5.45803 193.99 15.973 164.46C15.973 142.739 5.45794 140.006 2.05551 123.869Z" fill="#C35252"/>
<path d="M224.929 263.457L193.362 231.917C216.292 201.942 214.146 158.918 186.722 131.489C156.869 101.647 108.479 101.647 78.6094 131.489C48.7731 161.348 48.7731 209.764 78.6094 239.606C106.033 267.018 149.065 269.199 179.034 246.247L210.601 277.804L224.929 263.457Z" fill="#78A3AD"/>
<path d="M90.5887 228.343C67.1609 204.903 67.1609 166.89 90.5887 143.467C114.033 120.027 152.004 120.043 175.465 143.467C198.893 166.89 198.893 204.87 175.465 228.343C151.987 251.767 114.016 251.767 90.5887 228.343Z" fill="white"/>
<path d="M266.402 292.682L224.266 250.095C213.538 239.278 187.659 266.355 197.909 276.673L240.044 319.26C244.402 323.636 253.842 321.24 261.088 313.884C268.366 306.562 270.743 297.059 266.402 292.682Z" fill="#F79329"/>
<mask id="mask0_99_91" style="mask-type:luminance" maskUnits="userSpaceOnUse" x="195" y="247" width="74" height="75">
<path d="M266.402 292.682L224.266 250.095C213.538 239.278 187.659 266.355 197.909 276.673L240.044 319.26C244.402 323.636 253.842 321.24 261.088 313.884C268.366 306.562 270.743 297.059 266.402 292.682Z" fill="white"/>
</mask>
<g mask="url(#mask0_99_91)">
<path d="M240.908 318.177C241.214 314.81 243.477 310.832 244.94 308.587C249.311 301.87 254.806 296.308 263.005 294.195C271.341 292.033 272.174 298.123 270.184 304.296C267.785 311.74 263.005 317.335 255.963 321.247C254.313 322.171 252.118 323.475 250.213 323.755C245.552 324.399 240.415 323.821 240.908 318.177Z" fill="#855C52"/>
</g>
<path d="M89.8035 168.696C95.0616 164.505 109.353 154.165 104.904 152.069C101.344 150.392 93.3538 162.455 89.8035 168.696Z" fill="#78A3AD"/>
<path d="M155.894 150.212C149.436 148.323 132.716 142.582 133.72 147.436C134.523 151.319 148.837 150.905 155.894 150.212Z" fill="#78A3AD"/>
<path d="M125.053 185.482C125.053 191.972 119.793 197.232 113.303 197.232C106.814 197.232 101.553 191.972 101.553 185.482C101.553 178.993 106.814 173.732 113.303 173.732C119.793 173.732 125.053 178.993 125.053 185.482Z" fill="#656262"/>
<path d="M156.107 172.054C156.107 178.543 150.847 183.804 144.357 183.804C137.868 183.804 132.607 178.543 132.607 172.054C132.607 165.564 137.868 160.304 144.357 160.304C150.847 160.304 156.107 165.564 156.107 172.054Z" fill="#656262"/>
<path fill-rule="evenodd" clip-rule="evenodd" d="M129.398 223.232C129.162 224.192 129.182 224.674 129.21 224.796C129.458 225.901 128.763 226.999 127.658 227.247C126.552 227.495 125.455 226.8 125.207 225.695C124.967 224.626 125.135 223.387 125.414 222.252C125.709 221.052 126.199 219.699 126.837 218.28C128.112 215.441 130.048 212.188 132.451 209.157C134.849 206.132 137.775 203.25 141.059 201.236C144.348 199.219 148.111 198.008 152.08 198.561C153.202 198.717 153.985 199.753 153.829 200.875C153.673 201.997 152.636 202.78 151.514 202.624C148.759 202.24 145.952 203.048 143.203 204.733C140.448 206.423 137.867 208.928 135.665 211.705C133.469 214.476 131.712 217.439 130.579 219.962C130.012 221.224 129.618 222.337 129.398 223.232Z" fill="#78A3AD"/>
<path d="M179.017 159.337C173.04 161.054 174.65 154.995 176.057 152.587C178.076 151.188 183.045 149.052 186.77 151.709C191.425 155.031 184.994 157.621 179.017 159.337Z" fill="#D9D9D9"/>
<path d="M187.409 143.321C179.824 143.107 183.693 136.775 186.131 134.537C188.961 133.673 195.498 133.042 199.009 137.43C203.397 142.915 194.994 143.534 187.409 143.321Z" fill="#C0C0C0"/>
<path d="M192.448 128.219C180.603 126.393 186.218 117.994 189.874 115.24C194.231 114.555 204.386 114.948 210.153 122.006C217.361 130.829 204.293 130.045 192.448 128.219Z" fill="#BEB9B9"/>
<path d="M282.069 73.7732C287.554 55.7119 278.133 36.2543 260.211 29.5228C244.982 23.8025 228.324 29.0405 218.898 41.301C216.868 39.5159 214.49 38.0583 211.809 37.0514C200.841 32.9315 188.711 37.748 183.405 47.8628C183.326 47.832 183.25 47.7978 183.171 47.768C173.733 44.2229 163.207 49 159.662 58.4385C156.117 67.8769 160.894 78.4015 170.333 81.9467C171.456 82.3685 172.594 82.6688 173.734 82.8613C176.291 91.7298 182.86 99.3201 192.164 102.815C200.159 105.818 208.625 105.214 215.775 101.817C218.182 107.13 222.617 111.524 228.509 113.737C236.556 116.76 245.235 114.93 251.336 109.711C253.765 112.325 256.821 114.432 260.388 115.772C272.69 120.392 286.408 114.166 291.029 101.864C294.981 91.3443 290.998 79.7896 282.069 73.7732Z" fill="#C0BCBC"/>
<path d="M224.231 78.1375C224.566 76.9061 225.057 75.8682 225.703 75.0237C226.384 74.1888 227.124 73.4834 227.924 72.9075C228.758 72.3413 229.614 71.8374 230.49 71.3958C231.366 70.9543 232.18 70.5335 232.932 70.1336C233.728 69.7081 234.406 69.2314 234.965 68.7035C235.56 68.1853 235.963 67.5391 236.174 66.7651C236.519 65.4985 236.27 64.3344 235.425 63.2727C234.616 62.2206 233.349 61.4596 231.625 60.9898C229.971 60.5392 228.398 60.4883 226.904 60.8372C225.42 61.151 224.088 61.8085 222.908 62.8098L217.543 57.3225C219.536 55.5598 221.953 54.3856 224.797 53.7997C227.649 53.1787 230.853 53.3524 234.406 54.3207C237.045 55.0399 239.262 56.0597 241.056 57.3802C242.86 58.6656 244.129 60.183 244.861 61.9323C245.629 63.6913 245.726 65.6262 245.15 67.7372C244.776 69.1094 244.235 70.2657 243.525 71.2061C242.815 72.1466 242.02 72.9128 241.141 73.5046C240.261 74.0965 239.344 74.6212 238.387 75.0787C237.466 75.5459 236.585 76.005 235.744 76.4561C234.903 76.9073 234.158 77.4224 233.509 78.0014C232.895 78.59 232.458 79.3593 232.2 80.3092L224.231 78.1375ZM224.632 92.4772C223.154 92.0745 222.069 91.2687 221.378 90.0599C220.687 88.851 220.519 87.5957 220.874 86.2939C221.238 84.957 222.015 83.9781 223.205 83.3574C224.404 82.7015 225.743 82.5749 227.22 82.9776C228.733 83.3899 229.822 84.1781 230.488 85.3421C231.198 86.4806 231.371 87.7183 231.007 89.0553C230.652 90.3571 229.87 91.3535 228.661 92.0446C227.488 92.7453 226.144 92.8895 224.632 92.4772Z" fill="white"/>
</svg>
